<svg width="152" height="152" viewBox="0 0 152 152" fill="none" xmlns="http://www.w3.org/2000/svg">
<circle opacity="0.6" cx="75.5488" cy="75.5488" r="75.5488" fill="#C3BE2B"/>
<path d="M39.669 99.2165V92.2619L70.3509 43.7165H75.3963V54.4892H71.9872L48.8054 91.171V91.7165H90.1236V99.2165H39.669ZM72.5327 113.535V97.1028V93.8642V43.7165H80.5781V113.535H72.5327ZM100.081 113.716C99.5204 113.716 99.0393 113.516 98.6378 113.114C98.2363 112.713 98.0355 112.232 98.0355 111.671C98.0355 111.11 98.2363 110.629 98.6378 110.228C99.0393 109.826 99.5204 109.626 100.081 109.626C100.642 109.626 101.123 109.826 101.524 110.228C101.926 110.629 102.126 111.11 102.126 111.671C102.126 112.042 102.032 112.383 101.842 112.694C101.661 113.004 101.414 113.254 101.104 113.444C100.801 113.626 100.46 113.716 100.081 113.716ZM112.294 90.2619V113.535H109.476V93.2165H109.339L103.658 96.9892V94.1256L109.476 90.2619H112.294Z" fill="white"/>
</svg>
